<svg xmlns="http://www.w3.org/2000/svg" viewBox="0 0 520 520" fill="none" aria-hidden="true">
  <defs>
    <radialGradient id="cellGlow" cx="50%" cy="50%" r="50%">
      <stop offset="0%" stop-color="#14B8A6" stop-opacity="0.5"/>
      <stop offset="100%" stop-color="#14B8A6" stop-opacity="0"/>
    </radialGradient>
  </defs>
  <g stroke="#2563EB" stroke-opacity="0.3" stroke-width="1.2">
    <line x1="260" y1="260" x2="120" y2="100"/>
    <line x1="260" y1="260" x2="400" y2="90"/>
    <line x1="260" y1="260" x2="430" y2="260"/>
    <line x1="260" y1="260" x2="380" y2="420"/>
    <line x1="260" y1="260" x2="140" y2="400"/>
    <line x1="260" y1="260" x2="80" y2="240"/>
    <line x1="120" y1="100" x2="400" y2="90"/>
    <line x1="400" y1="90" x2="430" y2="260"/>
    <line x1="430" y1="260" x2="380" y2="420"/>
    <line x1="380" y1="420" x2="140" y2="400"/>
    <line x1="140" y1="400" x2="80" y2="240"/>
    <line x1="80" y1="240" x2="120" y2="100"/>
  </g>
  <circle cx="260" cy="260" r="48" fill="url(#cellGlow)" stroke="#2563EB" stroke-opacity="0.45" stroke-width="2"/>
  <circle cx="120" cy="100" r="22" stroke="#14B8A6" stroke-opacity="0.45" stroke-width="1.5"/>
  <circle cx="400" cy="90" r="18" stroke="#2563EB" stroke-opacity="0.4" stroke-width="1.5"/>
  <circle cx="430" cy="260" r="20" stroke="#14B8A6" stroke-opacity="0.4" stroke-width="1.5"/>
  <circle cx="380" cy="420" r="24" stroke="#2563EB" stroke-opacity="0.4" stroke-width="1.5"/>
  <circle cx="140" cy="400" r="16" stroke="#14B8A6" stroke-opacity="0.35" stroke-width="1.5"/>
  <circle cx="80" cy="240" r="14" stroke="#2563EB" stroke-opacity="0.35" stroke-width="1.5"/>
</svg>
