<svg xmlns="http://www.w3.org/2000/svg" viewBox="0 0 600 400" fill="none" aria-hidden="true">
  <g stroke="#2563EB" stroke-opacity="0.35" stroke-width="1.5" stroke-linecap="round">
    <path d="M40 200 H120"/>
    <path d="M120 200 Q180 120 240 160 T360 140 T480 180 T560 200"/>
    <path d="M240 160 Q220 240 200 300"/>
    <path d="M360 140 Q380 220 400 320"/>
    <path d="M480 180 Q500 260 520 340"/>
    <path d="M120 200 Q160 280 180 360"/>
  </g>
  <circle cx="40" cy="200" r="6" fill="#2563EB" fill-opacity="0.35"/>
  <circle cx="120" cy="200" r="8" fill="#14B8A6" fill-opacity="0.4"/>
  <circle cx="240" cy="160" r="7" fill="#2563EB" fill-opacity="0.35"/>
  <circle cx="360" cy="140" r="9" fill="#14B8A6" fill-opacity="0.4"/>
  <circle cx="480" cy="180" r="7" fill="#2563EB" fill-opacity="0.35"/>
  <circle cx="560" cy="200" r="6" fill="#14B8A6" fill-opacity="0.35"/>
  <circle cx="200" cy="300" r="5" fill="#2563EB" fill-opacity="0.3"/>
  <circle cx="400" cy="320" r="5" fill="#14B8A6" fill-opacity="0.3"/>
  <circle cx="520" cy="340" r="4" fill="#2563EB" fill-opacity="0.28"/>
  <circle cx="180" cy="360" r="4" fill="#14B8A6" fill-opacity="0.28"/>
</svg>
